solid ASCII
  facet normal 0.000000e+00 0.000000e+00 -1.000000e+00
    outer loop
      vertex   -8.000000e+03 1.500000e+03 4.750000e+04
      vertex   -1.000000e+03 1.500000e+03 4.750000e+04
      vertex   -8.000000e+03 0.000000e+00 4.750000e+04
    endloop
  endfacet
  facet normal 0.000000e+00 0.000000e+00 -1.000000e+00
    outer loop
      vertex   -8.000000e+03 0.000000e+00 4.750000e+04
      vertex   -1.000000e+03 1.500000e+03 4.750000e+04
      vertex   -1.000000e+03 0.000000e+00 4.750000e+04
    endloop
  endfacet
  facet normal -7.808688e-01 0.000000e+00 6.246950e-01
    outer loop
      vertex   -6.000000e+03 1.500000e+03 5.000000e+04
      vertex   -8.000000e+03 1.500000e+03 4.750000e+04
      vertex   -6.000000e+03 0.000000e+00 5.000000e+04
    endloop
  endfacet
  facet normal -7.808688e-01 0.000000e+00 6.246950e-01
    outer loop
      vertex   -6.000000e+03 0.000000e+00 5.000000e+04
      vertex   -8.000000e+03 1.500000e+03 4.750000e+04
      vertex   -8.000000e+03 0.000000e+00 4.750000e+04
    endloop
  endfacet
  facet normal 7.808688e-01 0.000000e+00 6.246950e-01
    outer loop
      vertex   8.000000e+03 1.500000e+03 4.750000e+04
      vertex   6.000000e+03 1.500000e+03 5.000000e+04
      vertex   8.000000e+03 0.000000e+00 4.750000e+04
    endloop
  endfacet
  facet normal 7.808688e-01 0.000000e+00 6.246950e-01
    outer loop
      vertex   8.000000e+03 0.000000e+00 4.750000e+04
      vertex   6.000000e+03 1.500000e+03 5.000000e+04
      vertex   6.000000e+03 0.000000e+00 5.000000e+04
    endloop
  endfacet
  facet normal 0.000000e+00 0.000000e+00 -1.000000e+00
    outer loop
      vertex   1.000000e+03 1.500000e+03 4.750000e+04
      vertex   8.000000e+03 1.500000e+03 4.750000e+04
      vertex   1.000000e+03 0.000000e+00 4.750000e+04
    endloop
  endfacet
  facet normal 0.000000e+00 0.000000e+00 -1.000000e+00
    outer loop
      vertex   1.000000e+03 0.000000e+00 4.750000e+04
      vertex   8.000000e+03 1.500000e+03 4.750000e+04
      vertex   8.000000e+03 0.000000e+00 4.750000e+04
    endloop
  endfacet
  facet normal 0.000000e+00 8.945725e-02 9.959907e-01
    outer loop
      vertex   1.000000e+03 1.500000e+04 -6.400000e+04
      vertex   -1.000000e+03 1.500000e+04 -6.400000e+04
      vertex   1.000000e+03 1.418194e+04 -6.392652e+04
    endloop
  endfacet
  facet normal 0.000000e+00 8.945725e-02 9.959907e-01
    outer loop
      vertex   1.000000e+03 1.418194e+04 -6.392652e+04
      vertex   -1.000000e+03 1.500000e+04 -6.400000e+04
      vertex   -1.000000e+03 1.418194e+04 -6.392652e+04
    endloop
  endfacet
  facet normal 0.000000e+00 1.461715e-01 9.892593e-01
    outer loop
      vertex   1.000000e+03 1.418194e+04 -6.392652e+04
      vertex   -1.000000e+03 1.418194e+04 -6.392652e+04
      vertex   1.000000e+03 1.336941e+04 -6.380647e+04
    endloop
  endfacet
  facet normal 0.000000e+00 1.461715e-01 9.892593e-01
    outer loop
      vertex   1.000000e+03 1.336941e+04 -6.380647e+04
      vertex   -1.000000e+03 1.418194e+04 -6.392652e+04
      vertex   -1.000000e+03 1.336941e+04 -6.380647e+04
    endloop
  endfacet
  facet normal 0.000000e+00 2.024089e-01 9.793011e-01
    outer loop
      vertex   1.000000e+03 1.336941e+04 -6.380647e+04
      vertex   -1.000000e+03 1.336941e+04 -6.380647e+04
      vertex   1.000000e+03 1.256506e+04 -6.364022e+04
    endloop
  endfacet
  facet normal 0.000000e+00 2.024089e-01 9.793011e-01
    outer loop
      vertex   1.000000e+03 1.256506e+04 -6.364022e+04
      vertex   -1.000000e+03 1.336941e+04 -6.380647e+04
      vertex   -1.000000e+03 1.256506e+04 -6.364022e+04
    endloop
  endfacet
  facet normal 0.000000e+00 2.579862e-01 9.661486e-01
    outer loop
      vertex   1.000000e+03 1.256506e+04 -6.364022e+04
      vertex   -1.000000e+03 1.256506e+04 -6.364022e+04
      vertex   1.000000e+03 1.177152e+04 -6.342832e+04
    endloop
  endfacet
  facet normal 0.000000e+00 2.579862e-01 9.661486e-01
    outer loop
      vertex   1.000000e+03 1.177152e+04 -6.342832e+04
      vertex   -1.000000e+03 1.256506e+04 -6.364022e+04
      vertex   -1.000000e+03 1.177152e+04 -6.342832e+04
    endloop
  endfacet
  facet normal 0.000000e+00 3.127219e-01 9.498447e-01
    outer loop
      vertex   1.000000e+03 1.177152e+04 -6.342832e+04
      vertex   -1.000000e+03 1.177152e+04 -6.342832e+04
      vertex   1.000000e+03 1.099136e+04 -6.317147e+04
    endloop
  endfacet
  facet normal 0.000000e+00 3.127219e-01 9.498447e-01
    outer loop
      vertex   1.000000e+03 1.099136e+04 -6.317147e+04
      vertex   -1.000000e+03 1.177152e+04 -6.342832e+04
      vertex   -1.000000e+03 1.099136e+04 -6.317147e+04
    endloop
  endfacet
  facet normal 0.000000e+00 3.664376e-01 9.304426e-01
    outer loop
      vertex   1.000000e+03 1.099136e+04 -6.317147e+04
      vertex   -1.000000e+03 1.099136e+04 -6.317147e+04
      vertex   1.000000e+03 1.022714e+04 -6.287049e+04
    endloop
  endfacet
  facet normal 0.000000e+00 3.664376e-01 9.304426e-01
    outer loop
      vertex   1.000000e+03 1.022714e+04 -6.287049e+04
      vertex   -1.000000e+03 1.099136e+04 -6.317147e+04
      vertex   -1.000000e+03 1.022714e+04 -6.287049e+04
    endloop
  endfacet
  facet normal 0.000000e+00 4.189580e-01 9.080056e-01
    outer loop
      vertex   1.000000e+03 1.022714e+04 -6.287049e+04
      vertex   -1.000000e+03 1.022714e+04 -6.287049e+04
      vertex   1.000000e+03 9.481348e+03 -6.252638e+04
    endloop
  endfacet
  facet normal 0.000000e+00 4.189580e-01 9.080056e-01
    outer loop
      vertex   1.000000e+03 9.481348e+03 -6.252638e+04
      vertex   -1.000000e+03 1.022714e+04 -6.287049e+04
      vertex   -1.000000e+03 9.481348e+03 -6.252638e+04
    endloop
  endfacet
  facet normal 0.000000e+00 4.701119e-01 8.826068e-01
    outer loop
      vertex   1.000000e+03 9.481348e+03 -6.252638e+04
      vertex   -1.000000e+03 9.481348e+03 -6.252638e+04
      vertex   1.000000e+03 8.756417e+03 -6.214025e+04
    endloop
  endfacet
  facet normal 0.000000e+00 4.701119e-01 8.826068e-01
    outer loop
      vertex   1.000000e+03 8.756417e+03 -6.214025e+04
      vertex   -1.000000e+03 9.481348e+03 -6.252638e+04
      vertex   -1.000000e+03 8.756417e+03 -6.214025e+04
    endloop
  endfacet
  facet normal 0.000000e+00 5.197323e-01 8.543291e-01
    outer loop
      vertex   1.000000e+03 8.756417e+03 -6.214025e+04
      vertex   -1.000000e+03 8.756417e+03 -6.214025e+04
      vertex   1.000000e+03 8.054713e+03 -6.171337e+04
    endloop
  endfacet
  facet normal 0.000000e+00 5.197323e-01 8.543291e-01
    outer loop
      vertex   1.000000e+03 8.054713e+03 -6.171337e+04
      vertex   -1.000000e+03 8.756417e+03 -6.214025e+04
      vertex   -1.000000e+03 8.054713e+03 -6.171337e+04
    endloop
  endfacet
  facet normal 0.000000e+00 5.676575e-01 8.232648e-01
    outer loop
      vertex   1.000000e+03 8.054713e+03 -6.171337e+04
      vertex   -1.000000e+03 8.054713e+03 -6.171337e+04
      vertex   1.000000e+03 7.378524e+03 -6.124712e+04
    endloop
  endfacet
  facet normal 0.000000e+00 5.676575e-01 8.232648e-01
    outer loop
      vertex   1.000000e+03 7.378524e+03 -6.124712e+04
      vertex   -1.000000e+03 8.054713e+03 -6.171337e+04
      vertex   -1.000000e+03 7.378524e+03 -6.124712e+04
    endloop
  endfacet
  facet normal 0.000000e+00 6.137311e-01 7.895151e-01
    outer loop
      vertex   1.000000e+03 7.378524e+03 -6.124712e+04
      vertex   -1.000000e+03 7.378524e+03 -6.124712e+04
      vertex   1.000000e+03 6.730055e+03 -6.074304e+04
    endloop
  endfacet
  facet normal 0.000000e+00 6.137311e-01 7.895151e-01
    outer loop
      vertex   1.000000e+03 6.730055e+03 -6.074304e+04
      vertex   -1.000000e+03 7.378524e+03 -6.124712e+04
      vertex   -1.000000e+03 6.730055e+03 -6.074304e+04
    endloop
  endfacet
  facet normal 0.000000e+00 6.578028e-01 7.531902e-01
    outer loop
      vertex   1.000000e+03 6.730055e+03 -6.074304e+04
      vertex   -1.000000e+03 6.730055e+03 -6.074304e+04
      vertex   1.000000e+03 6.111421e+03 -6.020275e+04
    endloop
  endfacet
  facet normal 0.000000e+00 6.578028e-01 7.531902e-01
    outer loop
      vertex   1.000000e+03 6.111421e+03 -6.020275e+04
      vertex   -1.000000e+03 6.730055e+03 -6.074304e+04
      vertex   -1.000000e+03 6.111421e+03 -6.020275e+04
    endloop
  endfacet
  facet normal 0.000000e+00 6.997289e-01 7.144085e-01
    outer loop
      vertex   1.000000e+03 6.111421e+03 -6.020275e+04
      vertex   -1.000000e+03 6.111421e+03 -6.020275e+04
      vertex   1.000000e+03 5.524641e+03 -5.962803e+04
    endloop
  endfacet
  facet normal 0.000000e+00 6.997289e-01 7.144085e-01
    outer loop
      vertex   1.000000e+03 5.524641e+03 -5.962803e+04
      vertex   -1.000000e+03 6.111421e+03 -6.020275e+04
      vertex   -1.000000e+03 5.524641e+03 -5.962803e+04
    endloop
  endfacet
  facet normal 0.000000e+00 7.393726e-01 6.732965e-01
    outer loop
      vertex   1.000000e+03 5.524641e+03 -5.962803e+04
      vertex   -1.000000e+03 5.524641e+03 -5.962803e+04
      vertex   1.000000e+03 4.971628e+03 -5.902074e+04
    endloop
  endfacet
  facet normal 0.000000e+00 7.393726e-01 6.732965e-01
    outer loop
      vertex   1.000000e+03 4.971628e+03 -5.902074e+04
      vertex   -1.000000e+03 5.524641e+03 -5.962803e+04
      vertex   -1.000000e+03 4.971628e+03 -5.902074e+04
    endloop
  endfacet
  facet normal 0.000000e+00 7.766046e-01 6.299884e-01
    outer loop
      vertex   1.000000e+03 4.971628e+03 -5.902074e+04
      vertex   -1.000000e+03 4.971628e+03 -5.902074e+04
      vertex   1.000000e+03 4.454186e+03 -5.838288e+04
    endloop
  endfacet
  facet normal 0.000000e+00 7.766046e-01 6.299884e-01
    outer loop
      vertex   1.000000e+03 4.454186e+03 -5.838288e+04
      vertex   -1.000000e+03 4.971628e+03 -5.902074e+04
      vertex   -1.000000e+03 4.454186e+03 -5.838288e+04
    endloop
  endfacet
  facet normal 0.000000e+00 8.113034e-01 5.846253e-01
    outer loop
      vertex   1.000000e+03 4.454186e+03 -5.838288e+04
      vertex   -1.000000e+03 4.454186e+03 -5.838288e+04
      vertex   1.000000e+03 3.974003e+03 -5.771651e+04
    endloop
  endfacet
  facet normal 0.000000e+00 8.113034e-01 5.846253e-01
    outer loop
      vertex   1.000000e+03 3.974003e+03 -5.771651e+04
      vertex   -1.000000e+03 4.454186e+03 -5.838288e+04
      vertex   -1.000000e+03 3.974003e+03 -5.771651e+04
    endloop
  endfacet
  facet normal 0.000000e+00 8.433559e-01 5.373553e-01
    outer loop
      vertex   1.000000e+03 3.974003e+03 -5.771651e+04
      vertex   -1.000000e+03 3.974003e+03 -5.771651e+04
      vertex   1.000000e+03 3.532646e+03 -5.702382e+04
    endloop
  endfacet
  facet normal 0.000000e+00 8.433559e-01 5.373553e-01
    outer loop
      vertex   1.000000e+03 3.532646e+03 -5.702382e+04
      vertex   -1.000000e+03 3.974003e+03 -5.771651e+04
      vertex   -1.000000e+03 3.532646e+03 -5.702382e+04
    endloop
  endfacet
  facet normal 0.000000e+00 8.726576e-01 4.883326e-01
    outer loop
      vertex   1.000000e+03 3.532646e+03 -5.702382e+04
      vertex   -1.000000e+03 3.532646e+03 -5.702382e+04
      vertex   1.000000e+03 3.131554e+03 -5.630706e+04
    endloop
  endfacet
  facet normal 0.000000e+00 8.726576e-01 4.883326e-01
    outer loop
      vertex   1.000000e+03 3.131554e+03 -5.630706e+04
      vertex   -1.000000e+03 3.532646e+03 -5.702382e+04
      vertex   -1.000000e+03 3.131554e+03 -5.630706e+04
    endloop
  endfacet
  facet normal 0.000000e+00 8.991128e-01 4.377170e-01
    outer loop
      vertex   1.000000e+03 3.131554e+03 -5.630706e+04
      vertex   -1.000000e+03 3.131554e+03 -5.630706e+04
      vertex   1.000000e+03 2.772034e+03 -5.556857e+04
    endloop
  endfacet
  facet normal 0.000000e+00 8.991128e-01 4.377170e-01
    outer loop
      vertex   1.000000e+03 2.772034e+03 -5.556857e+04
      vertex   -1.000000e+03 3.131554e+03 -5.630706e+04
      vertex   -1.000000e+03 2.772034e+03 -5.556857e+04
    endloop
  endfacet
  facet normal 0.000000e+00 9.226353e-01 3.856736e-01
    outer loop
      vertex   1.000000e+03 2.772034e+03 -5.556857e+04
      vertex   -1.000000e+03 2.772034e+03 -5.556857e+04
      vertex   1.000000e+03 2.455261e+03 -5.481077e+04
    endloop
  endfacet
  facet normal 0.000000e+00 9.226353e-01 3.856736e-01
    outer loop
      vertex   1.000000e+03 2.455261e+03 -5.481077e+04
      vertex   -1.000000e+03 2.772034e+03 -5.556857e+04
      vertex   -1.000000e+03 2.455261e+03 -5.481077e+04
    endloop
  endfacet
  facet normal 0.000000e+00 9.431483e-01 3.323723e-01
    outer loop
      vertex   1.000000e+03 2.455261e+03 -5.481077e+04
      vertex   -1.000000e+03 2.455261e+03 -5.481077e+04
      vertex   1.000000e+03 2.182266e+03 -5.403611e+04
    endloop
  endfacet
  facet normal 0.000000e+00 9.431483e-01 3.323723e-01
    outer loop
      vertex   1.000000e+03 2.182266e+03 -5.403611e+04
      vertex   -1.000000e+03 2.455261e+03 -5.481077e+04
      vertex   -1.000000e+03 2.182266e+03 -5.403611e+04
    endloop
  endfacet
  facet normal 0.000000e+00 9.605849e-01 2.779868e-01
    outer loop
      vertex   1.000000e+03 2.182266e+03 -5.403611e+04
      vertex   -1.000000e+03 2.182266e+03 -5.403611e+04
      vertex   1.000000e+03 1.953941e+03 -5.324713e+04
    endloop
  endfacet
  facet normal 0.000000e+00 9.605849e-01 2.779868e-01
    outer loop
      vertex   1.000000e+03 1.953941e+03 -5.324713e+04
      vertex   -1.000000e+03 2.182266e+03 -5.403611e+04
      vertex   -1.000000e+03 1.953941e+03 -5.324713e+04
    endloop
  endfacet
  facet normal 0.000000e+00 9.748883e-01 2.226946e-01
    outer loop
      vertex   1.000000e+03 1.953941e+03 -5.324713e+04
      vertex   -1.000000e+03 1.953941e+03 -5.324713e+04
      vertex   1.000000e+03 1.771031e+03 -5.244641e+04
    endloop
  endfacet
  facet normal 0.000000e+00 9.748883e-01 2.226946e-01
    outer loop
      vertex   1.000000e+03 1.771031e+03 -5.244641e+04
      vertex   -1.000000e+03 1.953941e+03 -5.324713e+04
      vertex   -1.000000e+03 1.771031e+03 -5.244641e+04
    endloop
  endfacet
  facet normal 0.000000e+00 9.860117e-01 1.666760e-01
    outer loop
      vertex   1.000000e+03 1.771031e+03 -5.244641e+04
      vertex   -1.000000e+03 1.771031e+03 -5.244641e+04
      vertex   1.000000e+03 1.634132e+03 -5.163654e+04
    endloop
  endfacet
  facet normal 0.000000e+00 9.860117e-01 1.666760e-01
    outer loop
      vertex   1.000000e+03 1.634132e+03 -5.163654e+04
      vertex   -1.000000e+03 1.771031e+03 -5.244641e+04
      vertex   -1.000000e+03 1.634132e+03 -5.163654e+04
    endloop
  endfacet
  facet normal 0.000000e+00 9.939190e-01 1.101137e-01
    outer loop
      vertex   1.000000e+03 1.634132e+03 -5.163654e+04
      vertex   -1.000000e+03 1.634132e+03 -5.163654e+04
      vertex   1.000000e+03 1.543690e+03 -5.082019e+04
    endloop
  endfacet
  facet normal 0.000000e+00 9.939190e-01 1.101137e-01
    outer loop
      vertex   1.000000e+03 1.543690e+03 -5.082019e+04
      vertex   -1.000000e+03 1.634132e+03 -5.163654e+04
      vertex   -1.000000e+03 1.543690e+03 -5.082019e+04
    endloop
  endfacet
  facet normal 0.000000e+00 9.985843e-01 5.319225e-02
    outer loop
      vertex   1.000000e+03 1.543690e+03 -5.082019e+04
      vertex   -1.000000e+03 1.543690e+03 -5.082019e+04
      vertex   1.000000e+03 1.500000e+03 -5.000000e+04
    endloop
  endfacet
  facet normal 0.000000e+00 9.985843e-01 5.319225e-02
    outer loop
      vertex   1.000000e+03 1.500000e+03 -5.000000e+04
      vertex   -1.000000e+03 1.543690e+03 -5.082019e+04
      vertex   -1.000000e+03 1.500000e+03 -5.000000e+04
    endloop
  endfacet
  facet normal 0.000000e+00 1.000000e+00 0.000000e+00
    outer loop
      vertex   -1.000000e+03 1.500000e+04 -6.500000e+04
      vertex   -1.000000e+03 1.500000e+04 -6.400000e+04
      vertex   1.000000e+03 1.500000e+04 -6.500000e+04
    endloop
  endfacet
  facet normal 0.000000e+00 1.000000e+00 -0.000000e+00
    outer loop
      vertex   1.000000e+03 1.500000e+04 -6.500000e+04
      vertex   -1.000000e+03 1.500000e+04 -6.400000e+04
      vertex   1.000000e+03 1.500000e+04 -6.400000e+04
    endloop
  endfacet
  facet normal 0.000000e+00 0.000000e+00 -1.000000e+00
    outer loop
      vertex   -1.000000e+03 0.000000e+00 -6.500000e+04
      vertex   -1.000000e+03 1.500000e+04 -6.500000e+04
      vertex   1.000000e+03 0.000000e+00 -6.500000e+04
    endloop
  endfacet
  facet normal 0.000000e+00 0.000000e+00 -1.000000e+00
    outer loop
      vertex   1.000000e+03 0.000000e+00 -6.500000e+04
      vertex   -1.000000e+03 1.500000e+04 -6.500000e+04
      vertex   1.000000e+03 1.500000e+04 -6.500000e+04
    endloop
  endfacet
  facet normal 0.000000e+00 0.000000e+00 1.000000e+00
    outer loop
      vertex   -6.000000e+03 0.000000e+00 5.000000e+04
      vertex   6.000000e+03 0.000000e+00 5.000000e+04
      vertex   -6.000000e+03 1.500000e+03 5.000000e+04
    endloop
  endfacet
  facet normal -0.000000e+00 0.000000e+00 1.000000e+00
    outer loop
      vertex   -6.000000e+03 1.500000e+03 5.000000e+04
      vertex   6.000000e+03 0.000000e+00 5.000000e+04
      vertex   6.000000e+03 1.500000e+03 5.000000e+04
    endloop
  endfacet
  facet normal -1.000000e+00 -0.000000e+00 -0.000000e+00
    outer loop
      vertex   -1.000000e+03 1.500000e+03 4.750000e+04
      vertex   -1.000000e+03 1.500000e+03 -5.000000e+04
      vertex   -1.000000e+03 0.000000e+00 4.750000e+04
    endloop
  endfacet
  facet normal -1.000000e+00 0.000000e+00 0.000000e+00
    outer loop
      vertex   -1.000000e+03 0.000000e+00 4.750000e+04
      vertex   -1.000000e+03 1.500000e+03 -5.000000e+04
      vertex   -1.000000e+03 0.000000e+00 -6.500000e+04
    endloop
  endfacet
  facet normal -1.000000e+00 0.000000e+00 0.000000e+00
    outer loop
      vertex   -1.000000e+03 0.000000e+00 -6.500000e+04
      vertex   -1.000000e+03 1.500000e+03 -5.000000e+04
      vertex   -1.000000e+03 1.543690e+03 -5.082019e+04
    endloop
  endfacet
  facet normal -1.000000e+00 0.000000e+00 0.000000e+00
    outer loop
      vertex   -1.000000e+03 0.000000e+00 -6.500000e+04
      vertex   -1.000000e+03 1.543690e+03 -5.082019e+04
      vertex   -1.000000e+03 1.634132e+03 -5.163654e+04
    endloop
  endfacet
  facet normal -1.000000e+00 0.000000e+00 -0.000000e+00
    outer loop
      vertex   -1.000000e+03 1.634132e+03 -5.163654e+04
      vertex   -1.000000e+03 1.771031e+03 -5.244641e+04
      vertex   -1.000000e+03 0.000000e+00 -6.500000e+04
    endloop
  endfacet
  facet normal -1.000000e+00 0.000000e+00 0.000000e+00
    outer loop
      vertex   -1.000000e+03 0.000000e+00 -6.500000e+04
      vertex   -1.000000e+03 1.771031e+03 -5.244641e+04
      vertex   -1.000000e+03 1.953941e+03 -5.324713e+04
    endloop
  endfacet
  facet normal -1.000000e+00 0.000000e+00 0.000000e+00
    outer loop
      vertex   -1.000000e+03 0.000000e+00 -6.500000e+04
      vertex   -1.000000e+03 1.953941e+03 -5.324713e+04
      vertex   -1.000000e+03 2.182266e+03 -5.403611e+04
    endloop
  endfacet
  facet normal -1.000000e+00 0.000000e+00 -0.000000e+00
    outer loop
      vertex   -1.000000e+03 2.182266e+03 -5.403611e+04
      vertex   -1.000000e+03 2.455261e+03 -5.481077e+04
      vertex   -1.000000e+03 0.000000e+00 -6.500000e+04
    endloop
  endfacet
  facet normal -1.000000e+00 0.000000e+00 0.000000e+00
    outer loop
      vertex   -1.000000e+03 0.000000e+00 -6.500000e+04
      vertex   -1.000000e+03 2.455261e+03 -5.481077e+04
      vertex   -1.000000e+03 2.772034e+03 -5.556857e+04
    endloop
  endfacet
  facet normal -1.000000e+00 0.000000e+00 0.000000e+00
    outer loop
      vertex   -1.000000e+03 0.000000e+00 -6.500000e+04
      vertex   -1.000000e+03 2.772034e+03 -5.556857e+04
      vertex   -1.000000e+03 3.131554e+03 -5.630706e+04
    endloop
  endfacet
  facet normal -1.000000e+00 0.000000e+00 -0.000000e+00
    outer loop
      vertex   -1.000000e+03 3.131554e+03 -5.630706e+04
      vertex   -1.000000e+03 3.532646e+03 -5.702382e+04
      vertex   -1.000000e+03 0.000000e+00 -6.500000e+04
    endloop
  endfacet
  facet normal -1.000000e+00 0.000000e+00 0.000000e+00
    outer loop
      vertex   -1.000000e+03 0.000000e+00 -6.500000e+04
      vertex   -1.000000e+03 3.532646e+03 -5.702382e+04
      vertex   -1.000000e+03 3.974003e+03 -5.771651e+04
    endloop
  endfacet
  facet normal -1.000000e+00 0.000000e+00 0.000000e+00
    outer loop
      vertex   -1.000000e+03 0.000000e+00 -6.500000e+04
      vertex   -1.000000e+03 3.974003e+03 -5.771651e+04
      vertex   -1.000000e+03 4.454186e+03 -5.838288e+04
    endloop
  endfacet
  facet normal -1.000000e+00 0.000000e+00 -0.000000e+00
    outer loop
      vertex   -1.000000e+03 4.454186e+03 -5.838288e+04
      vertex   -1.000000e+03 4.971628e+03 -5.902074e+04
      vertex   -1.000000e+03 0.000000e+00 -6.500000e+04
    endloop
  endfacet
  facet normal -1.000000e+00 0.000000e+00 0.000000e+00
    outer loop
      vertex   -1.000000e+03 0.000000e+00 -6.500000e+04
      vertex   -1.000000e+03 4.971628e+03 -5.902074e+04
      vertex   -1.000000e+03 5.524641e+03 -5.962803e+04
    endloop
  endfacet
  facet normal -1.000000e+00 0.000000e+00 0.000000e+00
    outer loop
      vertex   -1.000000e+03 0.000000e+00 -6.500000e+04
      vertex   -1.000000e+03 5.524641e+03 -5.962803e+04
      vertex   -1.000000e+03 6.111421e+03 -6.020275e+04
    endloop
  endfacet
  facet normal -1.000000e+00 0.000000e+00 -0.000000e+00
    outer loop
      vertex   -1.000000e+03 6.111421e+03 -6.020275e+04
      vertex   -1.000000e+03 6.730055e+03 -6.074304e+04
      vertex   -1.000000e+03 0.000000e+00 -6.500000e+04
    endloop
  endfacet
  facet normal -1.000000e+00 0.000000e+00 0.000000e+00
    outer loop
      vertex   -1.000000e+03 0.000000e+00 -6.500000e+04
      vertex   -1.000000e+03 6.730055e+03 -6.074304e+04
      vertex   -1.000000e+03 7.378524e+03 -6.124712e+04
    endloop
  endfacet
  facet normal -1.000000e+00 0.000000e+00 0.000000e+00
    outer loop
      vertex   -1.000000e+03 0.000000e+00 -6.500000e+04
      vertex   -1.000000e+03 7.378524e+03 -6.124712e+04
      vertex   -1.000000e+03 8.054713e+03 -6.171337e+04
    endloop
  endfacet
  facet normal -1.000000e+00 0.000000e+00 -0.000000e+00
    outer loop
      vertex   -1.000000e+03 8.054713e+03 -6.171337e+04
      vertex   -1.000000e+03 8.756417e+03 -6.214025e+04
      vertex   -1.000000e+03 0.000000e+00 -6.500000e+04
    endloop
  endfacet
  facet normal -1.000000e+00 0.000000e+00 0.000000e+00
    outer loop
      vertex   -1.000000e+03 0.000000e+00 -6.500000e+04
      vertex   -1.000000e+03 8.756417e+03 -6.214025e+04
      vertex   -1.000000e+03 9.481348e+03 -6.252638e+04
    endloop
  endfacet
  facet normal -1.000000e+00 0.000000e+00 0.000000e+00
    outer loop
      vertex   -1.000000e+03 0.000000e+00 -6.500000e+04
      vertex   -1.000000e+03 9.481348e+03 -6.252638e+04
      vertex   -1.000000e+03 1.022714e+04 -6.287049e+04
    endloop
  endfacet
  facet normal -1.000000e+00 0.000000e+00 -0.000000e+00
    outer loop
      vertex   -1.000000e+03 1.022714e+04 -6.287049e+04
      vertex   -1.000000e+03 1.099136e+04 -6.317147e+04
      vertex   -1.000000e+03 0.000000e+00 -6.500000e+04
    endloop
  endfacet
  facet normal -1.000000e+00 0.000000e+00 0.000000e+00
    outer loop
      vertex   -1.000000e+03 0.000000e+00 -6.500000e+04
      vertex   -1.000000e+03 1.099136e+04 -6.317147e+04
      vertex   -1.000000e+03 1.177152e+04 -6.342832e+04
    endloop
  endfacet
  facet normal -1.000000e+00 0.000000e+00 0.000000e+00
    outer loop
      vertex   -1.000000e+03 0.000000e+00 -6.500000e+04
      vertex   -1.000000e+03 1.177152e+04 -6.342832e+04
      vertex   -1.000000e+03 1.500000e+04 -6.500000e+04
    endloop
  endfacet
  facet normal -1.000000e+00 0.000000e+00 0.000000e+00
    outer loop
      vertex   -1.000000e+03 1.500000e+04 -6.500000e+04
      vertex   -1.000000e+03 1.177152e+04 -6.342832e+04
      vertex   -1.000000e+03 1.256506e+04 -6.364022e+04
    endloop
  endfacet
  facet normal -1.000000e+00 0.000000e+00 0.000000e+00
    outer loop
      vertex   -1.000000e+03 1.500000e+04 -6.500000e+04
      vertex   -1.000000e+03 1.256506e+04 -6.364022e+04
      vertex   -1.000000e+03 1.336941e+04 -6.380647e+04
    endloop
  endfacet
  facet normal -1.000000e+00 0.000000e+00 0.000000e+00
    outer loop
      vertex   -1.000000e+03 1.336941e+04 -6.380647e+04
      vertex   -1.000000e+03 1.418194e+04 -6.392652e+04
      vertex   -1.000000e+03 1.500000e+04 -6.500000e+04
    endloop
  endfacet
  facet normal -1.000000e+00 0.000000e+00 0.000000e+00
    outer loop
      vertex   -1.000000e+03 1.500000e+04 -6.500000e+04
      vertex   -1.000000e+03 1.418194e+04 -6.392652e+04
      vertex   -1.000000e+03 1.500000e+04 -6.400000e+04
    endloop
  endfacet
  facet normal 1.000000e+00 0.000000e+00 0.000000e+00
    outer loop
      vertex   1.000000e+03 1.500000e+03 4.750000e+04
      vertex   1.000000e+03 0.000000e+00 4.750000e+04
      vertex   1.000000e+03 1.500000e+03 -5.000000e+04
    endloop
  endfacet
  facet normal 1.000000e+00 -1.313715e-16 -2.021099e-18
    outer loop
      vertex   1.000000e+03 1.500000e+03 -5.000000e+04
      vertex   1.000000e+03 0.000000e+00 4.750000e+04
      vertex   1.000000e+03 0.000000e+00 -6.500000e+04
    endloop
  endfacet
  facet normal 1.000000e+00 1.709839e-15 -1.861422e-16
    outer loop
      vertex   1.000000e+03 1.500000e+03 -5.000000e+04
      vertex   1.000000e+03 0.000000e+00 -6.500000e+04
      vertex   1.000000e+03 1.543690e+03 -5.082019e+04
    endloop
  endfacet
  facet normal 1.000000e+00 0.000000e+00 0.000000e+00
    outer loop
      vertex   1.000000e+03 1.543690e+03 -5.082019e+04
      vertex   1.000000e+03 0.000000e+00 -6.500000e+04
      vertex   1.000000e+03 1.634132e+03 -5.163654e+04
    endloop
  endfacet
  facet normal 1.000000e+00 0.000000e+00 0.000000e+00
    outer loop
      vertex   1.000000e+03 1.634132e+03 -5.163654e+04
      vertex   1.000000e+03 0.000000e+00 -6.500000e+04
      vertex   1.000000e+03 1.771031e+03 -5.244641e+04
    endloop
  endfacet
  facet normal 1.000000e+00 0.000000e+00 0.000000e+00
    outer loop
      vertex   1.000000e+03 1.771031e+03 -5.244641e+04
      vertex   1.000000e+03 0.000000e+00 -6.500000e+04
      vertex   1.000000e+03 1.953941e+03 -5.324713e+04
    endloop
  endfacet
  facet normal 1.000000e+00 0.000000e+00 0.000000e+00
    outer loop
      vertex   1.000000e+03 1.953941e+03 -5.324713e+04
      vertex   1.000000e+03 0.000000e+00 -6.500000e+04
      vertex   1.000000e+03 2.182266e+03 -5.403611e+04
    endloop
  endfacet
  facet normal 1.000000e+00 0.000000e+00 0.000000e+00
    outer loop
      vertex   1.000000e+03 2.182266e+03 -5.403611e+04
      vertex   1.000000e+03 0.000000e+00 -6.500000e+04
      vertex   1.000000e+03 2.455261e+03 -5.481077e+04
    endloop
  endfacet
  facet normal 1.000000e+00 0.000000e+00 0.000000e+00
    outer loop
      vertex   1.000000e+03 2.455261e+03 -5.481077e+04
      vertex   1.000000e+03 0.000000e+00 -6.500000e+04
      vertex   1.000000e+03 2.772034e+03 -5.556857e+04
    endloop
  endfacet
  facet normal 1.000000e+00 0.000000e+00 0.000000e+00
    outer loop
      vertex   1.000000e+03 2.772034e+03 -5.556857e+04
      vertex   1.000000e+03 0.000000e+00 -6.500000e+04
      vertex   1.000000e+03 3.131554e+03 -5.630706e+04
    endloop
  endfacet
  facet normal 1.000000e+00 0.000000e+00 0.000000e+00
    outer loop
      vertex   1.000000e+03 3.131554e+03 -5.630706e+04
      vertex   1.000000e+03 0.000000e+00 -6.500000e+04
      vertex   1.000000e+03 3.532646e+03 -5.702382e+04
    endloop
  endfacet
  facet normal 1.000000e+00 0.000000e+00 0.000000e+00
    outer loop
      vertex   1.000000e+03 3.532646e+03 -5.702382e+04
      vertex   1.000000e+03 0.000000e+00 -6.500000e+04
      vertex   1.000000e+03 3.974003e+03 -5.771651e+04
    endloop
  endfacet
  facet normal 1.000000e+00 0.000000e+00 0.000000e+00
    outer loop
      vertex   1.000000e+03 3.974003e+03 -5.771651e+04
      vertex   1.000000e+03 0.000000e+00 -6.500000e+04
      vertex   1.000000e+03 4.454186e+03 -5.838288e+04
    endloop
  endfacet
  facet normal 1.000000e+00 0.000000e+00 0.000000e+00
    outer loop
      vertex   1.000000e+03 4.454186e+03 -5.838288e+04
      vertex   1.000000e+03 0.000000e+00 -6.500000e+04
      vertex   1.000000e+03 4.971628e+03 -5.902074e+04
    endloop
  endfacet
  facet normal 1.000000e+00 0.000000e+00 0.000000e+00
    outer loop
      vertex   1.000000e+03 4.971628e+03 -5.902074e+04
      vertex   1.000000e+03 0.000000e+00 -6.500000e+04
      vertex   1.000000e+03 5.524641e+03 -5.962803e+04
    endloop
  endfacet
  facet normal 1.000000e+00 0.000000e+00 0.000000e+00
    outer loop
      vertex   1.000000e+03 5.524641e+03 -5.962803e+04
      vertex   1.000000e+03 0.000000e+00 -6.500000e+04
      vertex   1.000000e+03 6.111421e+03 -6.020275e+04
    endloop
  endfacet
  facet normal 1.000000e+00 0.000000e+00 0.000000e+00
    outer loop
      vertex   1.000000e+03 6.111421e+03 -6.020275e+04
      vertex   1.000000e+03 0.000000e+00 -6.500000e+04
      vertex   1.000000e+03 6.730055e+03 -6.074304e+04
    endloop
  endfacet
  facet normal 1.000000e+00 0.000000e+00 0.000000e+00
    outer loop
      vertex   1.000000e+03 6.730055e+03 -6.074304e+04
      vertex   1.000000e+03 0.000000e+00 -6.500000e+04
      vertex   1.000000e+03 7.378524e+03 -6.124712e+04
    endloop
  endfacet
  facet normal 1.000000e+00 0.000000e+00 0.000000e+00
    outer loop
      vertex   1.000000e+03 7.378524e+03 -6.124712e+04
      vertex   1.000000e+03 0.000000e+00 -6.500000e+04
      vertex   1.000000e+03 8.054713e+03 -6.171337e+04
    endloop
  endfacet
  facet normal 1.000000e+00 0.000000e+00 0.000000e+00
    outer loop
      vertex   1.000000e+03 8.054713e+03 -6.171337e+04
      vertex   1.000000e+03 0.000000e+00 -6.500000e+04
      vertex   1.000000e+03 8.756417e+03 -6.214025e+04
    endloop
  endfacet
  facet normal 1.000000e+00 0.000000e+00 0.000000e+00
    outer loop
      vertex   1.000000e+03 8.756417e+03 -6.214025e+04
      vertex   1.000000e+03 0.000000e+00 -6.500000e+04
      vertex   1.000000e+03 9.481348e+03 -6.252638e+04
    endloop
  endfacet
  facet normal 1.000000e+00 0.000000e+00 0.000000e+00
    outer loop
      vertex   1.000000e+03 9.481348e+03 -6.252638e+04
      vertex   1.000000e+03 0.000000e+00 -6.500000e+04
      vertex   1.000000e+03 1.022714e+04 -6.287049e+04
    endloop
  endfacet
  facet normal 1.000000e+00 0.000000e+00 0.000000e+00
    outer loop
      vertex   1.000000e+03 1.022714e+04 -6.287049e+04
      vertex   1.000000e+03 0.000000e+00 -6.500000e+04
      vertex   1.000000e+03 1.099136e+04 -6.317147e+04
    endloop
  endfacet
  facet normal 1.000000e+00 0.000000e+00 0.000000e+00
    outer loop
      vertex   1.000000e+03 1.099136e+04 -6.317147e+04
      vertex   1.000000e+03 0.000000e+00 -6.500000e+04
      vertex   1.000000e+03 1.177152e+04 -6.342832e+04
    endloop
  endfacet
  facet normal 1.000000e+00 0.000000e+00 0.000000e+00
    outer loop
      vertex   1.000000e+03 1.177152e+04 -6.342832e+04
      vertex   1.000000e+03 0.000000e+00 -6.500000e+04
      vertex   1.000000e+03 1.500000e+04 -6.500000e+04
    endloop
  endfacet
  facet normal 1.000000e+00 0.000000e+00 0.000000e+00
    outer loop
      vertex   1.000000e+03 1.177152e+04 -6.342832e+04
      vertex   1.000000e+03 1.500000e+04 -6.500000e+04
      vertex   1.000000e+03 1.256506e+04 -6.364022e+04
    endloop
  endfacet
  facet normal 1.000000e+00 0.000000e+00 0.000000e+00
    outer loop
      vertex   1.000000e+03 1.256506e+04 -6.364022e+04
      vertex   1.000000e+03 1.500000e+04 -6.500000e+04
      vertex   1.000000e+03 1.336941e+04 -6.380647e+04
    endloop
  endfacet
  facet normal 1.000000e+00 0.000000e+00 0.000000e+00
    outer loop
      vertex   1.000000e+03 1.336941e+04 -6.380647e+04
      vertex   1.000000e+03 1.500000e+04 -6.500000e+04
      vertex   1.000000e+03 1.418194e+04 -6.392652e+04
    endloop
  endfacet
  facet normal 1.000000e+00 0.000000e+00 0.000000e+00
    outer loop
      vertex   1.000000e+03 1.418194e+04 -6.392652e+04
      vertex   1.000000e+03 1.500000e+04 -6.500000e+04
      vertex   1.000000e+03 1.500000e+04 -6.400000e+04
    endloop
  endfacet
  facet normal 0.000000e+00 1.000000e+00 -0.000000e+00
    outer loop
      vertex   1.000000e+03 1.500000e+03 -5.000000e+04
      vertex   -1.000000e+03 1.500000e+03 4.750000e+04
      vertex   1.000000e+03 1.500000e+03 4.750000e+04
    endloop
  endfacet
  facet normal 0.000000e+00 1.000000e+00 0.000000e+00
    outer loop
      vertex   1.000000e+03 1.500000e+03 4.750000e+04
      vertex   -1.000000e+03 1.500000e+03 4.750000e+04
      vertex   -6.000000e+03 1.500000e+03 5.000000e+04
    endloop
  endfacet
  facet normal 0.000000e+00 1.000000e+00 -0.000000e+00
    outer loop
      vertex   1.000000e+03 1.500000e+03 4.750000e+04
      vertex   -6.000000e+03 1.500000e+03 5.000000e+04
      vertex   6.000000e+03 1.500000e+03 5.000000e+04
    endloop
  endfacet
  facet normal 0.000000e+00 1.000000e+00 0.000000e+00
    outer loop
      vertex   1.000000e+03 1.500000e+03 -5.000000e+04
      vertex   -1.000000e+03 1.500000e+03 -5.000000e+04
      vertex   -1.000000e+03 1.500000e+03 4.750000e+04
    endloop
  endfacet
  facet normal 0.000000e+00 1.000000e+00 0.000000e+00
    outer loop
      vertex   -1.000000e+03 1.500000e+03 4.750000e+04
      vertex   -8.000000e+03 1.500000e+03 4.750000e+04
      vertex   -6.000000e+03 1.500000e+03 5.000000e+04
    endloop
  endfacet
  facet normal 0.000000e+00 1.000000e+00 0.000000e+00
    outer loop
      vertex   6.000000e+03 1.500000e+03 5.000000e+04
      vertex   8.000000e+03 1.500000e+03 4.750000e+04
      vertex   1.000000e+03 1.500000e+03 4.750000e+04
    endloop
  endfacet
  facet normal 0.000000e+00 -1.000000e+00 0.000000e+00
    outer loop
      vertex   8.000000e+03 0.000000e+00 4.750000e+04
      vertex   6.000000e+03 0.000000e+00 5.000000e+04
      vertex   1.000000e+03 0.000000e+00 4.750000e+04
    endloop
  endfacet
  facet normal 0.000000e+00 -1.000000e+00 0.000000e+00
    outer loop
      vertex   1.000000e+03 0.000000e+00 4.750000e+04
      vertex   6.000000e+03 0.000000e+00 5.000000e+04
      vertex   -6.000000e+03 0.000000e+00 5.000000e+04
    endloop
  endfacet
  facet normal 0.000000e+00 -1.000000e+00 0.000000e+00
    outer loop
      vertex   1.000000e+03 0.000000e+00 4.750000e+04
      vertex   -6.000000e+03 0.000000e+00 5.000000e+04
      vertex   -1.000000e+03 0.000000e+00 4.750000e+04
    endloop
  endfacet
  facet normal 0.000000e+00 -1.000000e+00 0.000000e+00
    outer loop
      vertex   -1.000000e+03 0.000000e+00 4.750000e+04
      vertex   -6.000000e+03 0.000000e+00 5.000000e+04
      vertex   -8.000000e+03 0.000000e+00 4.750000e+04
    endloop
  endfacet
  facet normal 0.000000e+00 -1.000000e+00 0.000000e+00
    outer loop
      vertex   -1.000000e+03 0.000000e+00 -6.500000e+04
      vertex   1.000000e+03 0.000000e+00 -6.500000e+04
      vertex   -1.000000e+03 0.000000e+00 4.750000e+04
    endloop
  endfacet
  facet normal 0.000000e+00 -1.000000e+00 0.000000e+00
    outer loop
      vertex   -1.000000e+03 0.000000e+00 4.750000e+04
      vertex   1.000000e+03 0.000000e+00 -6.500000e+04
      vertex   1.000000e+03 0.000000e+00 4.750000e+04
    endloop
  endfacet
endsolid
